<?xml version="1.0" encoding="UTF-8"?>
<svg width="64px" height="58px" viewBox="0 0 64 58" version="1.1" xmlns="http://www.w3.org/2000/svg" xmlns:xlink="http://www.w3.org/1999/xlink">
    <!-- Generator: Sketch 42 (36781) - http://www.bohemiancoding.com/sketch -->
    <title>Shape</title>
    <desc>Created with Sketch.</desc>
    <defs></defs>
    <g id="Page-1" stroke="none" stroke-width="1" fill="none" fill-rule="evenodd">
        <path d="M62.172,37.757 C59.362,33.837 54.482,31.241 54.482,31.241 C54.482,31.241 59.312,26.147 61.039,21.101 C62.763,16.055 63.157,10.176 54.827,8.901 C46.497,7.628 37.92,13.261 37.92,13.261 C37.92,13.261 35.16,8.755 32.795,5.864 C30.43,2.973 24.218,-2.514 19.19,1.307 C14.162,5.128 15.05,16.102 15.05,16.102 C15.05,16.102 2.48,13.996 0.214,20.12 C-2.053,26.244 14.558,34.89 14.558,34.89 C9.53,40.402 5.045,50.005 4.798,52.307 C4.552,54.61 4.108,58.529 11.452,57.941 C18.796,57.353 31.072,49.711 31.072,49.711 C31.072,49.711 33.782,52.504 37.922,55.738 C42.062,58.971 45.958,57.404 48.422,54.611 C50.886,51.819 50.295,45.989 50.295,45.989 C50.295,45.989 57.345,46.234 60.942,45.009 C64.54,43.783 64.984,41.677 62.174,37.759 L62.172,37.757 Z M53.398,13.653 C57.44,14.388 58.623,19.679 57.391,23.01 C56.161,26.34 53.251,30.36 53.251,30.36 C53.251,30.36 48.371,27.37 45.908,26.342 C45.908,26.342 41.225,17.769 40.486,16.838 C40.486,16.838 49.356,12.918 53.399,13.653 L53.398,13.653 Z M47.533,37.855 L48.568,43.145 C48.568,43.145 46.251,43.391 42.111,42.46 C42.111,42.46 46.794,38.736 47.534,37.855 L47.533,37.855 Z M40.139,42.068 C39.989,42.118 26.779,38.296 26.386,38.148 C25.992,38.002 21.851,30.604 21.851,30.31 C21.851,30.016 30.723,22.52 32.301,21.688 C32.301,21.688 42.751,25.852 43.786,26.881 C44.821,27.911 47.186,36.239 47.186,36.239 C47.186,36.239 40.286,42.019 40.138,42.069 L40.139,42.068 Z M46.644,28.398 C46.644,28.398 51.622,31.288 51.869,31.632 C52.115,31.975 48.616,35.159 48.616,35.159 C48.616,35.159 46.989,28.937 46.644,28.399 L46.644,28.398 Z M38.117,18.062 C38.117,18.062 41.617,22.667 42.11,24.088 C42.11,24.088 35.358,21.296 33.682,20.904 C33.682,20.904 35.802,19.287 38.118,18.062 L38.117,18.062 Z M22,9.244 C25.4,6.99 28.654,8.754 31.513,11.302 C34.373,13.849 35.358,14.829 35.358,14.829 L29.148,19.335 L19.388,16.543 C19.388,16.543 18.598,11.497 22,9.243 L22,9.244 Z M19.24,18.111 L27.767,20.366 L21.113,27.372 C21.113,27.372 19.091,22.572 19.239,18.112 L19.24,18.111 Z M20.065,31.658 C20.065,31.658 20.841,33.973 22.357,36.618 C22.357,36.618 19.067,35.698 17.551,34.708 C17.551,34.708 18.809,32.578 20.066,31.658 L20.065,31.658 Z M4.255,26 C1.15,22.717 0.607,20.07 2.775,18.7 C4.945,17.327 15.247,17.72 15.247,17.72 C15.247,17.72 15.74,22.47 17.071,25.166 C18.403,27.861 19.093,29.476 19.093,29.476 C19.093,29.476 16.086,32.808 15.693,33.446 C15.691,33.446 7.361,29.281 4.256,25.999 L4.255,26 Z M16.7,55.135 C11.784,56.862 8.53,57.487 7.274,55.943 C6.017,54.4 5.944,53.333 7.274,49.991 C8.604,46.649 13.854,37.939 16.516,35.661 C16.516,35.661 18.808,37.681 24.132,39.188 C24.132,39.188 27.052,45.47 29.899,48.85 C29.897,48.85 21.617,53.407 16.699,55.134 L16.7,55.135 Z M31.118,47.945 C30.872,47.848 27.421,41.725 27.865,40.94 L37.723,43.978 C37.723,43.978 35.553,45.448 33.878,46.478 C32.203,47.506 31.365,48.045 31.118,47.948 L31.118,47.945 Z M46.004,55.195 C43.144,56.617 41.026,56.765 37.624,54.215 C34.224,51.668 32.054,48.875 32.054,48.875 C32.054,48.875 36.244,46.72 39.35,44.32 C39.35,44.32 42.998,45.154 45.56,45.546 C48.124,45.938 49.258,46.036 49.258,46.036 C49.258,46.036 48.863,53.776 46.004,55.196 L46.004,55.195 Z M58.92,39.864 C57.933,42.608 56.947,43.048 54.828,43.194 C52.708,43.342 50.048,43.294 50.048,43.294 C50.048,43.294 48.864,37.364 48.568,36.384 C48.568,36.384 52.018,33.837 53.202,32.662 C53.202,32.664 59.905,37.122 58.919,39.865 L58.92,39.864 Z M33.964,27.248 C25.684,31.914 30.711,37.83 33.927,38.968 C37.143,40.106 40.249,39.042 42.023,37.022 C43.797,35.002 44.353,30.996 42.613,29.159 C40.877,27.321 36.913,25.585 33.963,27.247 L33.964,27.248 Z M41.937,33.298 C41.937,33.298 40.237,30.873 40.039,30.971 C39.842,31.071 38.979,31.561 39.176,31.781 C39.373,32.001 41.566,34.695 41.566,34.793 C41.566,34.891 41.196,35.943 41.049,35.895 C40.901,35.845 39.127,33.175 38.879,33.152 C38.634,33.129 37.919,33.79 38.091,33.986 C38.264,34.182 40.334,36.606 40.161,36.73 C39.989,36.852 39.496,37.318 39.348,37.244 C39.198,37.171 37.671,34.77 37.376,34.721 C37.08,34.671 36.563,35.211 36.661,35.357 C36.759,35.503 38.214,37.487 38.066,37.611 C37.918,37.733 37.573,37.856 37.45,37.781 C37.327,37.709 36.12,35.651 35.897,35.626 C35.674,35.601 34.959,35.822 34.984,36.14 C35.009,36.457 35.774,37.83 35.574,37.927 C35.378,38.025 33.554,37.804 32.051,35.771 C30.547,33.739 30.769,31.411 33.086,29.451 C34.733,28.058 37.816,27.909 39.739,29.231 C41.661,30.555 41.809,30.824 42.006,31.584 C42.206,32.344 41.934,33.299 41.934,33.299 L41.937,33.298 Z M34.223,30.236 C33.878,30.286 32.573,33.346 32.573,33.788 C32.573,34.228 33.436,34.562 33.508,34.548 C33.63,34.523 33.852,34.448 33.828,33.958 C33.803,33.468 34.124,32.783 34.124,32.783 C34.124,32.783 34.099,33.199 34.099,33.493 C34.099,33.787 34.297,34.228 34.445,34.35 C34.593,34.473 34.839,34.35 35.061,34.3 C35.283,34.252 35.011,34.4 35.161,33.395 C35.308,32.391 36.269,31.411 36.171,30.921 C36.071,30.433 34.568,30.189 34.223,30.237 L34.223,30.236 Z" id="Shape" fill="#FFFFFF" fill-rule="nonzero"></path>
    </g>
</svg>