<?xml version="1.0" encoding="UTF-8"?>
<svg width="64px" height="49px" viewBox="0 0 64 49" version="1.1" xmlns="http://www.w3.org/2000/svg" xmlns:xlink="http://www.w3.org/1999/xlink">
    <!-- Generator: Sketch 42 (36781) - http://www.bohemiancoding.com/sketch -->
    <title>Shape</title>
    <desc>Created with Sketch.</desc>
    <defs></defs>
    <g id="Page-1" stroke="none" stroke-width="1" fill="none" fill-rule="evenodd">
        <path d="M61.308,9.5 C59.551,7.204 57.261,4.43 51.564,2.615 C45.866,0.8 40.594,0 34.63,0 C28.667,0 23.13,0.534 18.018,2.4 C12.906,4.27 8.54,7.684 5.398,10.3 C2.256,12.913 -0.246,17.502 0.02,21.344 C0.286,25.186 2.523,29.402 5.238,31.697 C7.954,33.992 13.545,35.167 13.545,35.167 C13.545,35.167 8.115,46.907 7.955,47.653 C7.795,48.399 8.219,48.779 8.7,48.933 C10.19,49.413 12.694,47.173 16.42,44.505 C20.148,41.837 27.976,37.301 27.976,37.301 C27.976,37.301 32.609,37.568 35.006,37.301 C37.401,37.034 37.826,36.661 44.749,35.541 C51.672,34.421 53.639,33.566 57.634,30.897 C61.628,28.229 63.278,23.907 63.864,19.957 C64.448,16.007 63.064,11.792 61.307,9.497 L61.308,9.5 Z M61.201,19.158 C60.936,21.078 59.658,26.468 55.717,29.138 C51.777,31.805 43.097,33.673 37.507,34.208 C31.917,34.743 27.39,34.58 26.537,34.9 C25.687,35.22 12.107,43.972 12.107,43.972 C12.107,43.972 16.741,33.832 16.847,33.352 C16.953,32.872 16.314,32.126 15.677,32.339 C15.037,32.551 12.267,33.085 8.701,30.737 C5.133,28.389 3.216,25.24 2.951,21.397 C2.684,17.557 5.453,13.393 8.488,10.992 C11.523,8.591 15.623,5.495 21.374,4.108 C27.125,2.721 33.194,2.398 39.584,2.826 C45.974,3.253 49.064,3.68 55.346,7.469 C61.628,11.259 61.468,17.236 61.202,19.157 L61.201,19.158 Z M14.397,10.246 C13.917,10.126 10.324,12.406 8.247,14.849 C6.17,17.292 6.234,19.462 6.33,19.57 C6.61,19.89 7.807,19.93 8.526,19.65 C9.245,19.37 8.606,18.01 10.163,15.528 C11.721,13.048 14.037,12.046 14.636,11.686 C15.236,11.326 14.876,10.364 14.396,10.244 L14.397,10.246 Z M57.049,12.806 C56.409,12.686 55.349,13.368 55.372,13.566 C55.412,13.926 57.17,16.088 57.809,17.729 C58.449,19.369 57.529,22.411 57.289,23.011 C57.049,23.611 57.809,23.811 58.249,23.691 C58.687,23.571 59.246,22.251 59.606,18.928 C59.966,15.605 57.689,12.925 57.05,12.805 L57.049,12.806 Z M22.423,16.81 C19.667,18.13 20.706,20.652 22.383,21.092 C24.06,21.532 25.778,20.812 25.658,18.932 C25.538,17.05 23.586,16.252 22.423,16.81 Z M33.645,15.81 C31.568,16.25 31.289,18.09 31.768,18.81 C32.248,19.53 33.086,21.773 35.163,21.172 C37.24,20.572 38.078,19.372 37.639,17.85 C37.199,16.33 35.584,15.398 33.644,15.81 L33.645,15.81 Z M45.945,16.85 C42.671,18.09 44.389,20.852 46.265,20.732 C48.142,20.612 49.14,19.332 49.061,18.372 C48.981,17.41 47.495,16.262 45.947,16.85 L45.945,16.85 Z" id="Shape" fill="#FFFFFF" fill-rule="nonzero"></path>
    </g>
</svg>