<?xml version="1.0" encoding="UTF-8"?>
<svg width="32px" height="31px" viewBox="0 0 32 31" version="1.1" xmlns="http://www.w3.org/2000/svg" xmlns:xlink="http://www.w3.org/1999/xlink">
    <!-- Generator: Sketch 42 (36781) - http://www.bohemiancoding.com/sketch -->
    <title>Shape</title>
    <desc>Created with Sketch.</desc>
    <defs></defs>
    <g id="Page-1" stroke="none" stroke-width="1" fill="none" fill-rule="evenodd">
        <g id="017" fill-rule="nonzero" fill="#FFFFFF">
            <path d="M31.934,15.945 L31.936,15.945 C31.936,15.945 31.932,15.932 31.928,15.925 C31.905,15.84 31.876,15.768 31.839,15.715 C31.085,13.953 26.018,2.194 24.86,1.732 C24.346,1.526 21.044,1.933 17.26,2.544 L17.566,0 L12.369,0.73 L12.789,3.323 C8.795,4.066 5.253,4.861 4.822,5.239 C3.915,6.033 0.694,18.829 0.096,21.227 C0.085,21.242 0.069,21.254 0.063,21.268 C0.027,21.347 0.009,21.46 0.003,21.599 C0.001,21.607 0,21.613 0,21.613 L0.003,21.611 C-0.061,23.423 2.256,29.695 3.068,30.161 C3.944,30.662 28.113,29.91 28.99,28.907 C29.803,27.979 32.454,17.903 31.934,15.945 Z M22.455,16.167 C22.455,16.167 21.654,19.917 21.101,20.393 C20.225,21.144 9.956,23.146 9.08,22.58 C8.538,22.228 7.807,20.093 7.325,18.51 C5.043,19.191 4.111,19.847 2.813,20.364 C3.897,15.31 5.86,7.53 6.526,6.948 C6.927,6.596 9.212,5.858 12.926,5.166 L13.657,8.676 C11.679,9.044 10.036,9.507 9.932,9.747 C9.689,10.314 14.521,17.706 15.455,17.626 C16.389,17.544 21.137,8.973 20.57,8.527 C20.004,8.084 18.382,8.067 16.568,8.251 L17.152,4.431 C20.7,3.856 22.798,3.475 23.282,3.666 C24.074,3.982 29.154,15.108 29.154,15.108 L22.455,16.167 Z" id="Shape"></path>
        </g>
    </g>
</svg>