<?xml version="1.0" encoding="UTF-8"?>
<svg width="32px" height="32px" viewBox="0 0 32 32" version="1.1" xmlns="http://www.w3.org/2000/svg" xmlns:xlink="http://www.w3.org/1999/xlink">
    <!-- Generator: Sketch 42 (36781) - http://www.bohemiancoding.com/sketch -->
    <title>288</title>
    <desc>Created with Sketch.</desc>
    <defs></defs>
    <g id="Page-1" stroke="none" stroke-width="1" fill="none" fill-rule="evenodd">
        <g id="288" fill-rule="nonzero" fill="#FFFFFF">
            <path d="M16,0 C7.163,0 0,7.163 0,16 C0,24.836 7.163,32 16,32 C24.836,32 32,24.836 32,16 C32,7.163 24.836,0 16,0 Z M16.2,22.779 C15.625,22.779 6.74,14.633 6.74,14.175 C6.74,13.717 8.99,11.22 9.499,11.22 C10.009,11.22 15.741,18.907 16.135,18.907 C16.53,18.907 21.948,11.22 22.507,11.22 C23.065,11.22 24.74,12.714 24.74,13.255 C24.74,13.798 16.775,22.779 16.2,22.779 Z" id="Shape"></path>
        </g>
    </g>
</svg>