<?xml version="1.0" encoding="UTF-8"?>
<svg width="60px" height="64px" viewBox="0 0 60 64" version="1.1" xmlns="http://www.w3.org/2000/svg" xmlns:xlink="http://www.w3.org/1999/xlink">
    <!-- Generator: Sketch 42 (36781) - http://www.bohemiancoding.com/sketch -->
    <title>Shape</title>
    <desc>Created with Sketch.</desc>
    <defs></defs>
    <g id="Page-1" stroke="none" stroke-width="1" fill="none" fill-rule="evenodd">
        <path d="M45.29,26.525 C45.477,26.373 45.545,26.12 45.205,24.872 C44.865,23.624 44.475,22.662 43.081,20.622 C41.688,18.582 38.405,17.43 38.255,17.468 C37.32,17.704 38.119,18.328 38.85,18.8 C39.58,19.272 40.786,19.93 42.35,21.836 C43.914,23.742 44.016,25.936 44.185,26.356 C44.355,26.778 45.103,26.676 45.29,26.526 L45.29,26.525 Z M33.58,29.14 C33.037,29.088 31.695,31.247 31.474,31.332 C31.254,31.416 31.321,31.232 30.93,30.877 C30.54,30.523 29.69,29.292 28.925,29.325 C28.16,29.359 27.073,30.961 26.955,30.961 C26.835,30.961 26.699,30.878 26.189,30.523 C25.679,30.168 24.302,30.658 23.929,30.978 C23.554,31.298 23.775,32.024 23.859,32.192 C23.945,32.362 24.727,35.634 25.305,37.624 C25.883,39.614 26.002,41.621 26.087,41.841 C26.172,42.061 26.837,42.351 27.039,42.381 C27.499,42.447 28.025,42.093 28.229,41.791 C28.433,41.486 28.042,39.884 27.566,37.421 C27.09,34.961 26.036,32.497 26.156,32.328 C26.274,32.158 26.393,32.412 26.563,32.48 C26.733,32.546 26.903,32.546 27.43,32.378 C27.958,32.208 28.128,31.72 28.383,31.265 C28.638,30.81 28.757,30.725 29.097,30.742 C29.437,30.759 29.539,31.417 29.997,31.972 C30.455,32.527 30.661,33.069 31.613,32.985 C32.565,32.901 33.533,30.742 33.788,30.573 C34.043,30.403 34.196,31.028 34.196,31.467 C34.196,31.907 33.856,33.12 33.584,35.077 C33.312,37.034 32.598,40.254 32.768,40.912 C32.938,41.57 34.178,41.502 34.62,41.334 C35.062,41.164 35.147,39.714 35.487,36.797 C35.827,33.879 36.201,31.029 36.082,30.707 C35.96,30.387 34.124,29.19 33.582,29.139 L33.58,29.14 Z M31.643,57.694 C31.439,57.711 30.963,58.082 30.878,58.267 C30.793,58.453 32.306,59.903 32.408,59.954 C32.51,60.004 32.782,59.617 32.868,59.464 C32.952,59.314 31.718,57.688 31.643,57.694 L31.643,57.694 Z M15.65,31.6 C14.92,29.594 15.77,27.924 15.906,27.115 C16.042,26.305 15.294,26.475 14.92,26.609 C14.546,26.743 14.308,27.316 14.172,28.599 C14.036,29.879 14.257,31.566 14.886,33.253 C15.516,34.94 16.558,35.367 16.704,35.413 C16.976,35.496 17.282,35.243 17.282,35.243 C17.282,35.243 17.299,35.073 17.18,34.838 C17.06,34.602 16.38,33.608 15.65,31.598 L15.65,31.6 Z M44.474,39.01 C45.902,37.324 46.649,35.908 47.578,32.107 C48.508,28.307 47.738,26.125 47.078,23.427 C46.422,20.727 45.788,19.647 43.248,16.792 C40.711,13.936 38.038,12.159 34.548,10.9 C31.058,9.64 27.296,9.866 24.305,10.765 C21.315,11.665 18.867,13.125 16.487,15.263 C14.107,17.401 12.952,19.266 11.955,21.425 C10.958,23.585 10.255,27.317 10.573,29.475 C10.89,31.635 11.321,34.581 12.93,37.279 C14.54,39.977 18.187,42.429 19.955,43.169 C21.723,43.909 22.251,43.874 22.312,44.025 C22.357,44.137 21.678,44.88 21.474,45.307 C21.27,45.734 22.426,46.971 23.084,47.667 C23.74,48.365 22.811,48.657 22.244,49.467 C21.679,50.277 21.882,51.199 22.018,51.424 C22.154,51.649 23.06,52.279 23.288,52.638 C23.514,52.998 22.878,53.582 22.448,54.278 C22.018,54.976 21.996,55.268 22.178,55.876 C22.358,56.483 23.333,56.483 23.605,56.573 C23.877,56.663 23.695,56.888 23.582,57.203 C23.469,57.518 23.242,57.945 23.446,58.89 C23.65,59.835 25.1,60.824 27.638,62.24 C30.176,63.658 29.428,63.95 30.765,63.995 C32.102,64.04 31.807,63.68 32.623,63.163 C33.439,62.646 34.277,61.769 35.818,60.667 C37.358,59.564 38.311,58.912 38.922,57.967 C39.533,57.022 38.832,56.393 38.537,56.1 C38.242,55.808 38.447,55.74 38.537,55.515 C38.627,55.29 38.99,55.29 39.285,54.413 C39.58,53.536 39.557,52.861 39.489,52.389 C39.419,51.917 38.853,51.647 38.695,51.489 C38.537,51.331 38.808,50.724 39.215,50.409 C39.625,50.095 40.1,49.509 40.055,48.656 C40.01,47.803 39.533,47.846 39.012,47.508 C38.492,47.171 38.512,46.946 38.559,46.428 C38.604,45.912 38.514,45.102 39.079,44.203 C39.646,43.303 39.375,43.123 39.375,43.123 C39.375,43.123 39.965,42.853 40.985,42.179 C42.005,41.504 43.045,40.694 44.473,39.007 L44.474,39.01 Z M36.838,48.57 C36.748,48.704 36.181,48.636 36.181,49.086 C36.181,49.536 36.454,50.278 36.159,50.436 C35.864,50.592 35.071,50.726 35.094,51.066 C35.117,51.402 35.978,53.246 36.204,53.899 C36.431,54.549 36.544,54.573 36.384,54.663 C36.224,54.753 36.226,54.91 36.136,54.753 C36.046,54.596 35.343,53.021 35.162,53.021 C34.982,53.021 34.007,53.358 34.37,53.696 C34.733,54.033 35.594,56.26 35.684,56.396 C35.774,56.53 36.432,57.496 36.341,57.632 C36.249,57.767 35.796,58.307 35.728,58.239 C35.66,58.172 34.346,55.359 34.096,55.271 C33.846,55.181 32.963,55.361 33.144,55.766 C33.324,56.171 34.866,58.666 34.798,58.756 C34.73,58.846 34.278,59.094 34.208,59.004 C34.141,58.914 33.008,56.104 32.758,56.104 C32.51,56.104 31.898,56.598 31.988,56.778 C32.08,56.958 33.711,59.476 33.553,59.656 C33.393,59.836 32.715,60.398 32.556,60.398 C32.396,60.398 32.352,60.128 32.056,60.128 C31.762,60.128 30.743,59.993 30.403,59.858 C30.063,59.723 29.225,59.206 28.953,59.386 C28.681,59.566 27.865,59.746 27.571,59.723 C27.276,59.701 26.393,58.981 26.075,58.666 C25.758,58.351 25.622,57.811 25.712,57.676 C25.804,57.542 26.37,56.686 26.506,56.732 C26.642,56.777 28.546,57.339 29.61,57.317 C30.675,57.294 30.924,57.047 30.924,56.799 C30.924,56.552 30.969,56.282 30.516,56.282 C30.063,56.282 28.091,56.125 26.686,55.72 C25.281,55.315 24.511,54.955 24.624,54.753 C24.737,54.551 25.462,52.819 25.824,52.909 C26.188,52.999 28.204,53.629 29.632,53.809 C31.06,53.989 32.578,54.101 32.85,54.056 C33.122,54.01 33.303,53.56 33.145,53.448 C32.985,53.336 31.06,52.998 29.815,52.796 C28.568,52.594 26.732,52.144 25.758,51.626 C24.784,51.11 24.308,50.796 24.353,50.636 C24.399,50.48 25.033,48.77 25.238,48.816 C25.442,48.86 27.323,49.31 29.815,49.602 C32.308,49.894 32.829,49.894 33.033,49.804 C33.237,49.714 33.237,49.264 33.033,49.107 C32.829,48.951 31.379,48.817 28.977,48.477 C26.575,48.141 25.555,47.937 25.533,47.827 C25.51,47.714 25.986,47.399 25.693,47.129 C25.397,46.859 24.491,46.184 24.219,45.779 C23.947,45.375 23.902,45.195 23.969,45.015 C24.039,44.835 24.423,44.205 24.423,44.205 C24.423,44.205 26.643,44.565 27.278,44.52 C27.912,44.475 28.162,44.475 28.252,44.632 C28.342,44.789 28.818,45.127 29.022,45.149 C29.225,45.171 30.652,45.666 32.872,45.441 C35.094,45.216 36.385,44.586 36.385,44.586 C36.385,44.586 36.158,46.474 36.272,47.081 C36.385,47.688 36.408,48.003 36.612,48.183 C36.817,48.363 36.932,48.43 36.84,48.565 L36.838,48.57 Z M34.3,43.89 C32.555,44.34 30.856,44.07 28.952,43.8 C27.049,43.53 23.4,43.284 19.457,41.71 C17.557,40.95 16.353,39.484 14.947,37.617 C13.543,35.75 12.773,33.547 12.229,30.757 C11.684,27.969 12.205,26.35 12.523,24.371 C12.84,22.393 13.723,20.706 15.038,18.885 C16.351,17.063 17.892,15.399 20.181,14.05 C22.471,12.7 25.031,11.553 27.795,11.283 C30.56,11.013 34.525,12.183 36.61,13.24 C38.695,14.297 41.71,16.456 43.52,19.177 C45.334,21.897 45.968,22.775 46.4,26.103 C46.83,29.431 46.603,31.995 45.402,35.053 C44.202,38.111 42.23,39.798 40.282,41.147 C38.332,42.497 36.042,43.442 34.298,43.891 L34.3,43.89 Z M10.144,40.574 C9.549,40.22 9.209,40.169 7.918,40.658 C6.626,41.148 5.08,42.26 4.451,43.373 C3.823,44.486 4.688,45.069 5.217,45.143 C6.169,45.279 6.611,44.891 7.187,44.537 C7.767,44.183 9.72,42.429 10.197,41.855 C10.672,41.283 10.74,40.929 10.145,40.575 L10.144,40.574 Z M6.048,29.392 C5.793,29.038 4.841,28.987 3.992,29.274 C3.142,29.561 1.017,30.817 0.508,31.382 C-0.07,32.022 -0.122,32.782 0.185,33.322 C0.491,33.862 1.069,34.115 1.817,33.912 C2.565,33.709 4.383,32.647 5.233,31.972 C6.083,31.297 6.303,29.746 6.048,29.392 L6.048,29.392 Z M2.208,16.912 C2.955,17.366 4.892,17.906 5.81,18.042 C6.728,18.176 7.577,17.922 7.713,17.349 C7.849,16.776 7.543,16.623 6.813,16.099 C6.081,15.577 3.226,13.345 2.75,13.569 C0.15,14.802 1.46,16.454 2.207,16.909 L2.208,16.912 Z M16.738,7.769 C17.316,8.072 18.948,7.684 19.151,7.499 C19.356,7.312 19.237,6.284 18.659,5.626 C18.081,4.968 15.992,2.206 15.259,2.421 C13.323,2.994 13.475,4.428 13.917,5.035 C14.36,5.643 16.161,7.465 16.739,7.768 L16.738,7.769 Z M31.405,6.35 C32.085,6.62 32.408,6.097 32.833,5.473 C33.258,4.849 33.615,2.859 33.649,2.218 C33.683,1.577 33.903,1.172 33.087,0.565 C32.271,-0.042 31.065,-0.38 30.521,0.7 C29.977,1.78 30.419,5.068 30.538,5.456 C30.657,5.844 31.053,6.211 31.403,6.35 L31.405,6.35 Z M47.262,12.844 C48.418,12.204 49.76,11.377 50.695,9.624 C51.63,7.869 50.61,6.941 49.131,7.346 C47.653,7.751 45.444,11.9 45.274,12.186 C45.104,12.474 45.147,13.071 45.342,13.25 C45.785,13.654 46.108,13.485 47.264,12.844 L47.262,12.844 Z M59.242,24.178 C58.784,23.79 57.798,23.992 56.66,24.515 C55.52,25.038 50.93,27.333 50.916,27.905 C50.882,29.17 52.021,28.799 53.618,28.512 C55.216,28.225 58.768,27.348 59.618,26.724 C60.468,26.101 59.702,24.566 59.243,24.178 L59.242,24.178 Z M55.962,40.151 C55.3,39.711 51.328,37.786 50.864,38.194 C50.711,38.329 49.266,39.494 49.249,40.049 C49.231,40.607 51.763,41.839 53.139,42.411 C54.517,42.984 55.757,43.356 56.489,42.546 C57.219,41.736 56.625,40.59 55.962,40.152 L55.962,40.151 Z M44.747,44.2 C44.373,44.083 43.591,44.268 43.404,44.488 C43.217,44.708 42.996,45.314 43.54,46.09 C44.083,46.866 45.595,49.58 46.122,49.85 C46.649,50.12 47.346,49.885 47.974,49.514 C48.604,49.144 48.552,48.654 48.364,48.266 C48.179,47.878 44.861,44.236 44.746,44.201 L44.747,44.2 Z" id="Shape" fill="#FFFFFF" fill-rule="nonzero"></path>
    </g>
</svg>