<?xml version="1.0" encoding="UTF-8"?>
<svg width="64px" height="23px" viewBox="0 0 64 23" version="1.1" xmlns="http://www.w3.org/2000/svg" xmlns:xlink="http://www.w3.org/1999/xlink">
    <!-- Generator: Sketch 42 (36781) - http://www.bohemiancoding.com/sketch -->
    <title>Shape</title>
    <desc>Created with Sketch.</desc>
    <defs></defs>
    <g id="Page-1" stroke="none" stroke-width="1" fill="none" fill-rule="evenodd">
        <path d="M63.454,14.62 C63.04,14.06 56.22,9.89 56.141,9.812 C56.063,9.735 56.319,9.562 56.811,9.059 C57.305,8.556 60.261,5.059 60.498,4.654 C60.735,4.248 60.321,3.824 60.064,3.727 C59.808,3.63 55.214,3.669 50.701,3.843 C46.187,4.017 40.727,4.21 40.471,4.075 C40.214,3.94 39.307,0.985 38.971,0.405 C38.637,-0.175 35.818,0.038 31.777,0.038 C27.736,0.038 22.295,0.404 22.02,0.462 C21.743,0.52 20.66,4.035 20.6,4.18 C20.54,4.325 14.746,4.122 9.128,4.267 C3.51,4.411 0.32,4.705 0.168,4.817 C-0.392,5.231 0.494,5.947 2.15,7.182 C3.806,8.418 7.157,10.89 7.216,11.045 C7.276,11.2 6.842,11.682 5.738,12.552 C4.634,13.422 1.125,16.472 0.751,16.782 C0.377,17.092 0.771,17.362 0.929,17.535 C1.087,17.709 2.329,17.575 5.857,17.342 C9.387,17.11 13.347,16.917 14.313,16.917 C15.279,16.917 21.073,16.705 21.153,16.743 C21.233,16.783 22.71,18.307 23.853,19.177 C24.997,20.047 26.968,21.572 28.368,22.403 C29.768,23.233 30.655,23.253 32.606,22.093 C34.557,20.933 37.928,17.285 38.086,17.149 C38.244,17.014 38.993,17.109 41.358,16.994 C43.723,16.878 51.668,16.762 56.418,16.666 C61.168,16.568 63.436,16.414 63.83,16.008 C64.223,15.602 63.868,15.178 63.454,14.618 L63.454,14.62 Z M40.75,5.08 C40.795,5.007 41.18,4.963 41.12,5.093 C41.06,5.223 40.84,5.483 40.84,5.483 C40.84,5.483 40.707,5.153 40.75,5.079 L40.75,5.08 Z M19.345,15.856 C19.182,15.914 18.147,16.03 18.192,15.956 C18.237,15.886 19.212,14.624 19.169,14.536 C19.125,14.45 18.889,14.204 18.829,14.291 C18.769,14.378 17.839,15.957 17.765,15.957 C17.691,15.957 16.922,16.087 16.981,16 C17.039,15.914 18.207,14.19 18.207,14.132 C18.207,14.074 17.957,13.784 17.852,13.857 C17.75,13.929 16.744,15.929 16.642,15.929 C16.538,15.929 15.872,16.044 15.887,15.957 C15.902,15.87 17.277,14.087 17.247,13.943 C17.217,13.798 16.863,13.683 16.817,13.711 C16.774,13.741 15.517,16.029 15.427,16.029 C15.337,16.029 14.423,16.043 14.467,16.015 C14.511,15.985 15.975,14.075 15.96,14.001 C15.945,13.927 15.65,13.668 15.502,13.827 C15.354,13.987 14.098,16.043 14.052,16.043 C14.009,16.043 13.314,16.173 13.314,16.073 C13.314,15.973 14.659,14.261 14.571,14.116 C14.481,13.971 14.111,13.913 14.067,13.956 C14.023,14 12.929,16.13 12.81,16.13 C12.69,16.13 11.774,16.348 11.79,16.218 C11.804,16.088 13.105,14.262 13.105,14.262 C13.105,14.262 12.735,14.146 12.602,14.262 C12.469,14.378 11.508,16.189 11.39,16.189 C11.272,16.189 10.533,16.347 10.592,16.217 C10.652,16.087 11.568,14.567 11.568,14.567 C11.568,14.567 11.168,14.45 11.11,14.567 C11.05,14.682 10.253,16.304 10.164,16.304 C10.075,16.304 2.358,16.724 2.447,16.608 C2.537,16.491 6.335,13.174 7.341,12.276 C8.347,11.378 8.464,11.046 8.301,10.828 C8.138,10.61 7.191,9.756 5.461,8.612 C3.731,7.468 1.771,5.884 1.776,5.56 C1.776,5.56 6.901,5.116 12.421,5.058 C17.941,5 20.227,5.116 20.227,5.116 C20.227,5.116 18.177,11.084 18.177,11.916 C18.177,12.746 18.867,13.634 19.044,13.982 C19.221,14.33 19.729,14.957 19.759,15.015 C19.789,15.073 19.507,15.797 19.345,15.855 L19.345,15.856 Z M38.431,15.204 C38.387,15.174 37.131,12.582 36.967,12.568 C36.804,12.553 36.717,12.77 36.73,12.858 C36.744,12.944 38.163,15.464 38.163,15.464 C38.163,15.464 37.675,16.246 37.646,16.101 C37.617,15.956 36.478,13.521 36.36,13.494 C36.242,13.467 36.123,13.697 36.138,13.784 C36.153,13.871 37.365,16.391 37.365,16.391 C37.365,16.391 36.892,17.159 36.775,17.086 C36.655,17.014 35.828,15.058 35.755,15.058 C35.68,15.058 35.37,15.218 35.429,15.318 C35.488,15.418 36.463,17.202 36.433,17.288 C36.403,17.376 36.019,17.838 35.989,17.782 C35.959,17.724 35.102,15.884 35.013,15.87 C34.923,15.856 34.673,16 34.717,16.102 C34.761,16.202 35.619,18.087 35.619,18.087 C35.619,18.087 34.969,19.042 34.879,18.867 C34.791,18.694 34.199,17.247 34.082,17.173 C33.965,17.099 33.757,17.13 33.786,17.26 C33.815,17.39 34.629,19.13 34.599,19.187 C34.569,19.244 33.934,19.997 33.861,19.881 C33.787,19.765 33.388,18.041 33.121,17.998 C32.856,17.956 32.885,18.188 32.885,18.231 C32.885,18.274 33.565,20.056 33.505,20.143 C33.447,20.23 33.092,20.533 33.048,20.447 C33.003,20.359 32.441,18.607 32.323,18.563 C32.205,18.519 31.998,18.737 32.013,18.78 C32.028,18.823 32.737,20.707 32.619,20.852 C32.501,20.997 31.452,21.938 31.409,21.808 C31.364,21.678 30.846,19.911 30.669,19.853 C30.492,19.795 30.239,20.07 30.285,20.128 C30.329,20.186 31.128,21.91 31.055,21.953 C30.98,21.996 30.61,22.156 30.565,22.113 C30.52,22.07 29.901,20.345 29.855,20.33 C29.812,20.316 29.472,20.36 29.485,20.475 C29.501,20.591 30.077,22.025 30.003,22.025 C29.929,22.025 29.205,22.141 27.667,20.968 C26.129,19.795 25.021,18.853 22.552,16.448 C20.082,14.043 19.152,12.551 19.122,11.972 C19.092,11.392 20.438,7.772 20.674,7.018 C20.911,6.265 22.374,1.818 22.552,1.528 C22.687,1.308 27.992,1.035 31.91,1.008 C35.83,0.978 37.662,0.92 38.032,1.34 C38.402,1.76 39.466,4.063 39.614,4.34 C39.762,4.614 39.821,5.034 39.747,4.933 C39.673,4.832 38.623,2.876 38.283,2.789 C37.943,2.703 37.928,2.949 38.033,3.036 C38.135,3.123 39.821,5.658 39.85,5.701 C39.88,5.744 40.397,8.236 40.338,8.149 C40.279,8.062 39.466,6.063 38.888,5.369 C38.312,4.673 38.15,4.529 38.046,4.557 C37.943,4.587 37.869,4.774 37.943,4.832 C38.017,4.89 39.393,7.092 39.953,7.975 C40.516,8.859 40.56,8.989 40.56,8.989 C40.56,8.989 40.974,10.061 41.004,10.496 C41.034,10.931 41.152,11.51 41.034,11.901 C40.916,12.291 40.65,12.625 40.604,12.611 C40.561,12.597 39.629,10.786 39.054,9.671 C38.476,8.555 38.506,8.424 38.358,8.395 C38.21,8.365 38.048,8.495 38.108,8.555 C38.166,8.612 40.384,12.74 40.354,12.798 C40.324,12.855 39.954,13.508 39.91,13.448 C39.866,13.391 38.165,10.001 38.032,9.958 C37.899,9.915 37.795,10.045 37.81,10.088 C37.825,10.131 39.688,13.666 39.673,13.738 C39.658,13.81 39.348,14.158 39.289,14.144 C39.229,14.13 37.677,11.29 37.573,11.276 C37.469,11.262 37.293,11.363 37.307,11.436 C37.322,11.506 39.097,14.318 39.067,14.406 C39.035,14.493 38.473,15.232 38.429,15.203 L38.431,15.204 Z M62.811,15.378 C62.721,15.464 59.735,15.783 55.921,15.841 C52.107,15.899 51.131,15.899 51.175,15.841 C51.219,15.783 51.945,15.247 51.945,15.175 C51.945,15.103 51.975,14.813 51.9,14.813 C51.825,14.813 50.834,15.898 50.64,15.898 C50.45,15.898 49.25,15.956 49.384,15.884 C49.517,15.812 50.759,14.74 50.7,14.667 C50.64,14.594 50.316,14.391 50.227,14.449 C50.137,14.507 49,15.854 48.823,15.869 C48.646,15.883 47.507,15.956 47.566,15.912 C47.626,15.869 49.326,14.392 49.222,14.262 C49.118,14.132 48.808,14.072 48.734,14.116 C48.66,14.158 47.167,15.896 47.094,15.896 C47.019,15.896 45.689,15.984 45.718,15.94 C45.748,15.897 47.848,14.07 47.773,13.984 C47.699,13.897 47.477,13.781 47.359,13.868 C47.239,13.955 45.377,15.911 45.289,15.911 C45.201,15.911 43.809,15.983 43.839,15.941 C43.869,15.897 46.352,13.767 46.309,13.666 C46.264,13.566 46.071,13.406 45.953,13.492 C45.835,13.579 43.44,15.998 43.203,16.012 C42.966,16.027 41.665,16.187 41.695,16.085 C41.725,15.983 44.785,13.52 44.947,13.332 C45.109,13.144 45.139,13.115 45.021,13.042 C44.903,12.969 44.666,13.028 44.563,13.1 C44.46,13.172 41.399,16.084 41.207,16.1 C41.015,16.113 39.965,16.186 39.995,16.1 C40.025,16.014 44.401,12.173 44.415,11.927 C44.43,11.681 44.238,11.521 44.193,11.537 C44.149,11.55 39.861,16.143 39.758,16.143 C39.654,16.143 38.944,16.288 39.003,16.157 C39.062,16.026 40.881,13.883 41.503,13.202 C42.125,12.521 44.237,10.942 44.178,10.768 C44.118,10.594 44.03,10.362 43.868,10.522 C43.705,10.682 42.153,12.347 42.108,12.188 C42.065,12.028 42.108,11.42 42.108,11.42 C42.108,11.42 44.105,9.884 44.016,9.682 C43.927,9.48 43.926,9.292 43.794,9.305 C43.662,9.318 42.124,11.043 42.109,10.971 C42.095,10.899 41.903,10.203 41.962,10.087 C42.021,9.971 43.692,8.682 43.647,8.551 C43.603,8.421 43.41,8.131 43.337,8.203 C43.263,8.275 41.933,9.767 41.903,9.695 C41.873,9.623 41.563,8.985 41.653,8.825 C41.741,8.667 43.353,7.405 43.308,7.305 C43.263,7.205 43.07,6.885 43.026,6.899 C42.982,6.913 41.576,8.507 41.548,8.406 C41.52,8.305 41.252,7.856 41.311,7.626 C41.37,7.396 42.715,6.568 42.581,6.263 C42.449,5.959 42.301,5.93 42.227,5.988 C42.152,6.046 41.221,7.292 41.177,7.161 C41.133,7.03 40.88,6.089 40.88,6.089 C40.88,6.089 41.885,4.974 42.018,4.989 C42.151,5.004 48.79,4.742 52.841,4.582 C56.891,4.422 59.139,4.466 59.271,4.582 C59.403,4.698 54.999,9.42 54.925,9.739 C54.851,10.058 55.205,10.391 55.545,10.579 C55.885,10.767 59.153,12.694 60.987,13.939 C62.82,15.186 62.894,15.289 62.807,15.375 L62.811,15.378 Z M23.35,2.094 C23.04,2.124 22.125,4.86 22.182,4.962 C22.272,5.122 22.582,4.992 22.729,5.005 C22.876,5.019 23.629,2.76 23.704,2.645 C23.778,2.528 24.458,2.499 24.634,2.499 C24.81,2.499 24.709,2.209 24.694,2.109 C24.679,2.009 23.66,2.065 23.349,2.094 L23.35,2.094 Z M31.422,19.057 C31.289,19.071 31.097,19.303 31.097,19.405 C31.097,19.507 31.747,21.201 31.792,21.275 C31.836,21.345 32.088,21.071 32.132,20.97 C32.176,20.869 31.555,19.044 31.422,19.058 L31.422,19.057 Z M40.752,11.452 C40.988,11.814 40.854,11.365 40.899,11.322 C40.942,11.279 40.277,9.772 39.863,9.192 C39.449,8.614 37.971,5.977 37.883,6.006 C37.883,6.006 37.69,6.049 37.808,6.31 C37.925,6.57 40.512,11.09 40.748,11.453 L40.752,11.452 Z" id="Shape" fill="#FFFFFF" fill-rule="nonzero"></path>
    </g>
</svg>