<?xml version="1.0" encoding="UTF-8"?>
<svg width="62px" height="64px" viewBox="0 0 62 64" version="1.1" xmlns="http://www.w3.org/2000/svg" xmlns:xlink="http://www.w3.org/1999/xlink">
    <!-- Generator: Sketch 42 (36781) - http://www.bohemiancoding.com/sketch -->
    <title>Shape</title>
    <desc>Created with Sketch.</desc>
    <defs></defs>
    <g id="Page-1" stroke="none" stroke-width="1" fill="none" fill-rule="evenodd">
        <path d="M33.077,44.352 C34.337,43.53 40.037,39.856 40.367,39.362 C40.695,38.87 38.831,35.962 38.447,35.415 C38.064,34.867 40.147,30.425 40.147,30.095 C40.147,29.767 42.613,30.26 43.271,30.315 C43.931,30.37 44.039,30.26 44.258,29.438 C44.478,28.616 45.573,21.158 45.518,20.008 C45.463,18.858 40.478,18.801 40.478,18.801 C40.478,18.801 40.203,17.815 39.984,17.047 C39.764,16.279 38.559,13.373 38.559,13.099 C38.559,12.825 40.587,11.179 41.079,10.467 C41.573,9.754 39.929,8.603 38.559,7.067 C37.189,5.533 32.914,2.024 32.256,2.077 C31.598,2.133 27.816,5.587 27.816,5.587 C27.816,5.587 26.173,5.423 24.036,5.313 C21.898,5.203 20.363,5.587 19.979,5.533 C19.595,5.477 18.993,2.626 18.499,1.749 C18.006,0.872 14.663,2.462 11.265,4.107 C7.868,5.752 5.455,7.947 5.182,8.494 C4.909,9.042 7.156,12.277 7.156,12.277 C7.156,12.277 6.553,12.551 5.402,15.019 C4.251,17.487 4.032,20.063 4.032,20.063 C4.032,20.063 1.018,20.118 0.196,20.995 C-0.626,21.872 1.402,30.755 1.84,31.742 C2.278,32.73 6.827,31.25 6.827,31.25 C6.827,31.25 7.867,33.005 8.581,33.717 C9.291,34.43 11.321,36.349 11.431,36.623 C11.541,36.898 9.676,40.463 9.567,40.791 C9.457,41.121 9.897,41.559 11.595,42.491 C13.295,43.423 18.72,44.849 20.09,44.794 C21.46,44.74 22.172,41.176 22.555,40.684 C22.939,40.19 27.159,40.847 27.652,41.231 C28.145,41.615 29.242,44.851 29.789,45.288 C30.336,45.726 31.816,45.178 33.076,44.356 L33.077,44.352 Z M26.94,34.1 C26.775,34.1 25.953,34.428 26.007,34.757 C26.062,35.087 27.542,38.267 27.377,38.267 C27.213,38.267 26.281,38.377 26.007,38.267 C25.733,38.157 24.417,34.921 24.197,34.921 C23.979,34.921 23.047,34.977 23.102,35.415 C23.157,35.855 24.692,38.155 24.198,38.155 C23.704,38.155 22.444,37.608 21.568,37.772 C20.69,37.937 20.361,39.034 19.978,39.582 C19.594,40.13 19.32,41.72 18.772,41.72 C18.224,41.72 13.017,39.8 13.017,39.472 C13.017,39.144 14.827,36.182 14.332,35.634 C13.839,35.086 11.975,33.879 10.222,31.302 C8.468,28.725 8.359,28.012 7.812,28.067 C7.262,28.122 4.358,29.327 4.194,29.109 C4.03,28.892 2.77,22.859 3.318,22.696 C3.866,22.532 6.003,22.806 6.058,22.476 C6.113,22.146 6.77,17.871 8.031,15.896 C9.292,13.921 9.895,13.046 10.005,12.716 C10.093,12.452 8.361,9.646 8.58,9.153 C8.798,8.661 10.607,7.345 12.14,6.413 C13.673,5.481 16.69,4.383 16.8,4.658 C16.91,4.932 18.005,8.222 18.498,8.168 C18.991,8.112 21.678,7.728 24.308,7.893 C26.938,8.058 28.472,8.441 28.746,8.223 C29.02,8.003 31.76,5.261 32.034,5.261 C32.308,5.261 37.734,10.141 37.624,10.305 C37.514,10.469 34.444,12.772 34.994,13.759 C35.541,14.746 36.747,15.623 37.35,18.036 C37.953,20.449 38.556,21.052 38.72,21.052 C38.884,21.052 42.776,21.49 42.776,21.819 C42.776,22.149 42.118,27.412 41.899,27.412 C41.68,27.412 38.609,26.754 38.389,26.972 C38.171,27.192 37.404,28.234 37.404,28.234 C37.404,28.234 35.102,24.724 34.938,24.78 C34.773,24.835 33.786,25.438 34.115,25.822 C34.445,26.206 37.02,29.057 37.075,29.442 C37.129,29.825 36.415,32.457 36.252,32.457 C36.089,32.457 33.457,27.467 33.292,27.467 C33.129,27.467 32.362,28.18 32.472,28.344 C32.582,28.508 35.814,34.32 35.814,34.32 C35.814,34.32 35.156,35.855 35.43,36.35 C35.704,36.842 36.855,38.652 36.745,38.816 C36.635,38.98 36.252,39.256 36.252,39.256 C36.252,39.256 31.812,30.318 31.374,30.263 C30.936,30.209 30.278,30.813 30.442,31.033 C30.606,31.251 35.32,39.695 35.155,39.913 C34.991,40.133 33.84,40.736 33.84,40.736 C33.84,40.736 29.894,32.731 29.73,32.786 C29.566,32.841 28.744,33.389 28.853,33.718 C28.963,34.048 32.853,41.338 32.689,41.504 C32.525,41.67 31.539,42.437 31.539,42.274 C31.539,42.111 30.279,39.148 29.839,38.874 C29.402,38.6 28.963,38.434 28.963,38.434 C28.963,38.434 27.103,34.104 26.938,34.104 L26.94,34.1 Z M14.497,18.36 C14.004,18.963 13.347,19.95 13.072,22.8 C12.798,25.652 14.004,27.297 14.387,27.297 C14.771,27.297 15.427,26.693 15.427,25.925 C15.427,25.157 14.88,25.377 14.661,23.622 C14.441,21.867 15.373,20.606 15.757,19.729 C16.142,18.853 14.674,18.143 14.497,18.359 L14.497,18.36 Z M31.817,21.65 C31.597,19.073 27.815,15.943 23.65,16.606 C15.375,17.922 16.69,24.226 18.225,26.092 C19.76,27.956 23.212,30.149 27.158,28.942 C31.104,27.736 32.036,24.227 31.818,21.65 L31.817,21.65 Z M27.377,25.708 C25.623,27.188 23.321,26.914 21.457,25.215 C19.595,23.515 19.485,20.225 23.924,19.075 C24.997,18.795 27.486,19.677 28.254,20.775 C29.021,21.869 29.13,24.227 27.377,25.708 Z M61.959,16.168 C61.685,15.618 58.725,14.688 58.725,14.688 C58.725,14.688 58.835,14.194 58.945,12.768 C59.055,11.342 58.615,10.246 58.615,10.246 C58.615,10.246 60.533,9.369 60.917,9.149 C61.301,8.931 61.027,7.834 60.04,5.915 C59.053,3.996 57.41,1.2 56.862,1.255 C56.314,1.309 54.615,3.283 54.615,3.283 C54.615,3.283 53.793,2.57 52.039,1.857 C50.284,1.144 48.092,1.967 48.092,1.967 C48.092,1.967 46.832,0.487 46.502,0.157 C46.174,-0.171 45.462,-0.006 44.312,0.817 C43.162,1.64 40.42,5.367 40.146,5.97 C39.872,6.574 42.776,10.63 42.776,10.796 C42.776,10.962 40.476,11.783 40.146,12.056 C39.816,12.331 40.036,13.099 40.584,15.346 C41.132,17.596 42.388,18.55 42.612,18.582 C43.379,18.692 43.708,17.54 43.544,17.322 C43.38,17.102 41.844,13.592 41.79,13.209 C41.736,12.824 44.093,12.057 44.75,11.453 C45.408,10.85 43.215,7.889 42.667,7.286 C42.119,6.683 41.79,6.464 42.941,5.038 C44.093,3.611 45.737,2.35 45.737,2.35 C45.737,2.35 46.614,3.282 47.71,3.666 C48.805,4.05 49.024,3.118 51.216,3.282 C53.408,3.446 53.518,5.256 54.559,5.202 C55.599,5.146 56.257,3.666 56.312,3.502 C56.367,3.337 59.162,8.216 59.162,8.216 C59.162,8.216 56.202,9.366 56.092,9.642 C55.982,9.916 56.696,10.574 57.354,11.89 C58.012,13.206 57.08,16.002 57.08,16.002 L59.82,16.934 C59.82,16.934 57.574,20.334 57.245,20.662 C56.915,20.992 55.655,19.456 55.162,18.907 C54.669,18.357 50.558,18.851 49.682,18.907 C48.805,18.961 49.462,19.837 49.572,21.044 C49.682,22.25 46.887,21.318 46.338,21.374 C45.79,21.428 45.9,22.744 46.174,23.292 C46.448,23.84 50.174,23.237 51.106,22.852 C52.038,22.469 51.436,20.934 51.326,20.715 C51.216,20.495 54.284,20.605 54.284,20.605 C54.284,20.605 56.804,22.36 57.682,22.579 C58.559,22.799 60.148,19.289 60.587,18.686 C61.027,18.084 62.234,16.713 61.96,16.166 L61.959,16.168 Z M49.134,7.668 C46.284,8.162 45.681,10.848 46.229,12.548 C46.777,14.248 47.983,15.618 50.229,15.126 C52.477,14.633 52.751,12.933 53.189,11.123 C53.629,9.313 52.021,7.169 49.134,7.669 L49.134,7.668 Z M51.436,12.165 C50.888,13.207 50.23,13.92 49.026,13.535 C47.819,13.152 47.162,10.465 49.902,10.027 C50.714,9.895 51.984,11.122 51.436,12.164 L51.436,12.165 Z M51.491,15.783 C50.341,16.276 50.998,16.825 51.601,16.989 C52.204,17.154 52.916,17.099 54.177,16.169 C55.437,15.236 54.725,14.304 54.561,14.304 C54.397,14.304 54.068,15.236 53.301,15.564 C52.531,15.894 51.847,15.632 51.491,15.784 L51.491,15.783 Z M51.711,39.25 C51.711,39.25 51.381,38.757 50.285,38.318 C49.189,37.878 46.503,37.825 45.955,37.825 C45.407,37.825 45.9,34.261 45.352,33.548 C44.804,32.835 39.378,34.37 39.104,34.535 C38.83,34.7 39.159,35.577 39.159,36.07 C39.159,36.563 40.969,38.154 40.969,38.154 C40.969,38.154 41.079,36.29 41.023,35.742 C40.968,35.194 43.325,34.92 43.653,34.92 C43.983,34.92 43.818,38.21 43.873,38.923 C43.928,39.636 44.476,40.02 45.133,40.183 C45.79,40.346 46.395,39.581 48.368,39.691 C50.34,39.801 50.998,40.897 51.272,41.336 C51.546,41.776 55.822,39.472 56.095,39.472 C56.369,39.472 58.287,43.529 58.287,43.858 C58.287,44.187 55.327,45.832 54.887,46.106 C54.51,46.342 55.107,47.51 55.28,47.83 L53.135,43.913 C53.135,43.913 52.532,44.077 52.203,44.461 C51.873,44.845 54.943,48.957 54.943,48.957 C54.943,48.957 54.943,50.601 54.779,50.82 C54.615,51.04 52.149,46.434 52.039,46.214 C51.929,45.994 51.162,46.598 51.053,46.762 C50.943,46.926 54.341,52.135 54.341,52.135 C54.341,52.135 54.011,54.383 53.793,54.493 C53.573,54.603 51.436,49.997 51.217,49.449 C50.997,48.901 50.285,49.723 50.121,50.271 C49.957,50.819 54.286,58.551 54.505,58.989 C54.725,59.429 53.902,59.921 53.683,59.921 C53.463,59.921 49.847,53.177 49.683,52.903 C49.518,52.629 48.421,53.835 48.421,53.835 C48.421,53.835 52.477,60.36 52.805,60.745 C53.135,61.128 52.147,61.237 51.545,61.512 C50.941,61.786 46.775,54.439 46.557,54.329 C46.337,54.219 45.625,54.932 45.407,55.261 C45.187,55.591 47.707,58.167 47.872,58.496 C48.036,58.824 46.666,58.988 46.337,59.098 C46.007,59.208 44.419,56.356 44.254,55.863 C44.089,55.37 43.322,55.808 42.884,56.247 C42.446,56.687 44.528,58.715 44.638,59.154 C44.748,59.594 42.063,58.277 41.296,58.332 C40.529,58.387 38.994,61.292 38.72,61.622 C38.446,61.952 34.72,59.484 34.39,59.264 C34.06,59.044 35.925,56.961 36.308,56.577 C36.692,56.193 36.363,56.193 34.664,54.274 C32.964,52.354 33.184,50.654 33.184,50.491 C33.184,50.328 30.664,50.051 30.389,50.051 C30.116,50.051 30.226,48.901 30.445,48.517 C30.665,48.133 32.035,49.065 32.473,49.065 C32.911,49.065 32.857,48.901 33.076,48.352 C33.296,47.804 34.172,46.762 35.323,45.72 C36.474,44.678 41.953,41.17 42.393,41.005 C42.831,40.841 42.557,40.237 42.119,40.183 C41.681,40.128 36.145,42.87 34.939,43.803 C33.733,44.733 31.869,46.983 31.869,46.983 C31.869,46.983 29.842,46.433 29.404,46.489 C28.966,46.544 28.692,50.546 28.692,51.424 C28.692,52.301 31.597,51.644 31.597,51.644 C31.597,51.644 32.09,52.356 32.364,53.891 C32.638,55.426 34.337,56.358 34.337,56.358 C34.337,56.358 31.817,58.608 31.871,59.32 C31.926,60.033 38.393,63.652 39.051,63.98 C39.709,64.31 42.231,60.307 42.231,60.307 C42.231,60.307 43.819,60.635 44.806,60.745 C45.792,60.855 49.081,60.525 49.081,60.525 C49.081,60.525 50.999,63.487 51.491,63.815 C51.985,64.145 57.027,59.539 57.411,58.825 C57.795,58.113 56.151,56.195 55.548,55.701 C54.945,55.207 55.438,54.933 56.368,52.631 C57.301,50.328 57.028,46.655 57.028,46.655 C57.028,46.655 59.712,45.01 60.315,44.462 C60.918,43.914 57.301,37.718 56.753,37.334 C56.203,36.947 51.709,39.249 51.709,39.249 L51.711,39.25 Z M37.625,47.585 C37.132,47.421 36.529,48.078 36.529,48.353 C36.529,48.627 37.077,51.917 37.899,52.465 C38.721,53.013 39.489,52.245 39.762,51.862 C40.036,51.478 39.488,51.094 38.94,50.162 C38.394,49.23 37.99,47.706 37.626,47.585 L37.625,47.585 Z M41.297,50.765 C42.667,51.807 45.462,51.971 47.052,50.875 C48.642,49.778 49.244,48.025 47.6,45.337 C45.957,42.649 43.614,43.28 42.394,43.801 C37.517,45.884 39.928,49.721 41.298,50.764 L41.297,50.765 Z M43.435,45.062 C44.191,44.954 45.518,44.732 46.449,46.378 C47.381,48.023 47.107,49.448 45.409,49.888 C43.709,50.326 41.846,49.338 41.243,48.626 C40.64,47.914 40.749,45.446 43.435,45.062 Z" id="Shape" fill="#FFFFFF" fill-rule="nonzero"></path>
    </g>
</svg>