<?xml version="1.0" encoding="UTF-8"?>
<svg width="103px" height="104px" viewBox="0 0 103 104" version="1.1" xmlns="http://www.w3.org/2000/svg" xmlns:xlink="http://www.w3.org/1999/xlink">
    <!-- Generator: Sketch 42 (36781) - http://www.bohemiancoding.com/sketch -->
    <title>mustache_icon</title>
    <desc>Created with Sketch.</desc>
    <defs></defs>
    <g id="Page-1" stroke="none" stroke-width="1" fill="none" fill-rule="evenodd">
        <g id="O4YIMU1" transform="translate(-281.000000, -13.000000)">
            <g id="mustache_icon" transform="translate(281.000000, 13.000000)">
                <path d="M51.663,103.387 C23.428,103.387 0.327,80.286 0.327,52.051 C0.327,23.815 23.428,0.714 51.663,0.714 C79.898,0.714 103,23.815 103,52.051 C103,80.286 79.898,103.387 51.663,103.387" id="Fill-93" fill="#FFFFFF"></path>
                <path d="M82.977,47.1 C82.752,49.216 80.967,50.822 78.843,50.822 L65.259,50.822 C63.135,50.822 61.352,49.216 61.133,47.1 L60.144,37.712 C60.023,36.544 60.403,35.378 61.189,34.498 C61.975,33.628 63.101,33.127 64.275,33.127 L79.827,33.127 C81.002,33.127 82.127,33.628 82.915,34.498 C83.706,35.378 84.081,36.544 83.961,37.712 L82.977,47.1 Z M45.956,37.712 L44.972,47.1 C44.753,49.216 42.969,50.822 40.838,50.822 L27.263,50.822 C25.132,50.822 23.347,49.216 23.128,47.1 L22.145,37.712 C22.016,36.544 22.4,35.378 23.184,34.498 C23.977,33.628 25.096,33.127 26.27,33.127 L41.831,33.127 C43.005,33.127 44.124,33.628 44.914,34.498 C45.703,35.378 46.085,36.544 45.956,37.712 Z M87.386,29.318 L18.72,29.318 C17.345,29.318 16.241,30.429 16.241,31.795 C16.241,32.489 16.801,33.049 17.493,33.049 C17.82,33.049 18.109,33.282 18.337,33.6 C18.556,33.918 18.711,34.316 18.748,34.633 L20.508,50.631 C20.665,52.032 21.847,53.101 23.262,53.101 L45.179,53.101 C46.437,53.101 47.543,51.785 47.861,50.567 L49.255,45.542 C49.588,44.339 50.678,43.51 51.925,43.51 L54.147,43.51 C55.408,43.51 56.503,44.826 56.823,46.045 L58.217,51.069 C58.55,52.267 59.647,53.101 60.884,53.101 L82.835,53.101 C84.251,53.101 85.435,51.572 85.591,50.164 L87.358,34.167 C87.429,33.528 87.96,33.049 88.604,33.049 L88.613,33.049 C89.3,33.049 89.865,32.489 89.865,31.795 C89.865,30.429 88.754,29.318 87.386,29.318 L87.386,29.318 Z" id="Fill-269" fill="#4D4D4D"></path>
                <path d="M66.069,65.651 C62.394,62.032 60.251,59.859 55.753,61.359 C54.693,61.713 53.754,62.398 53.001,63.285 C52.247,62.398 51.308,61.713 50.247,61.359 C45.748,59.859 43.607,62.032 39.932,65.651 C34.99,70.515 28.412,70.823 19.883,64.584 C21.969,68.651 25.97,72.416 30.94,74.854 C35.909,77.291 47.155,78.322 52.122,74.292 C52.446,74.029 52.736,73.75 53.001,73.462 C53.262,73.75 53.554,74.029 53.878,74.292 C58.846,78.322 70.091,77.291 75.061,74.854 C80.031,72.416 84.032,68.651 86.115,64.584 C77.589,70.823 71.009,70.515 66.069,65.651" id="Fill-270" fill="#4D4D4D"></path>
            </g>
        </g>
    </g>
</svg>