<?xml version="1.0" encoding="UTF-8"?>
<svg width="104px" height="103px" viewBox="0 0 104 103" version="1.1" xmlns="http://www.w3.org/2000/svg" xmlns:xlink="http://www.w3.org/1999/xlink">
    <!-- Generator: Sketch 42 (36781) - http://www.bohemiancoding.com/sketch -->
    <title>profile_group</title>
    <desc>Created with Sketch.</desc>
    <defs></defs>
    <g id="Page-1" stroke="none" stroke-width="1" fill="none" fill-rule="evenodd">
        <g id="O4YIMU1" transform="translate(-816.000000, -442.000000)">
            <g id="profile_group" transform="translate(816.000000, 442.000000)">
                <path d="M52.022,102.673 C23.786,102.673 0.685,79.571 0.685,51.337 C0.685,23.102 23.786,0 52.022,0 C80.257,0 103.358,23.102 103.358,51.337 C103.358,79.571 80.257,102.673 52.022,102.673" id="Fill-50" fill="#FFFFFF"></path>
                <path d="M65.299,40.513 C65.299,47.65 59.515,53.433 52.379,53.433 C45.242,53.433 39.458,47.65 39.458,40.513 C39.458,33.377 45.242,27.592 52.379,27.592 C59.515,27.592 65.299,33.377 65.299,40.513" id="Fill-271" fill="#4D4D4D"></path>
                <path d="M52.379,56.918 C48.596,56.918 45.081,55.797 42.123,53.889 C38.52,59.113 36.177,67.019 36.054,75.926 L68.704,75.926 C68.579,67.02 66.237,59.115 62.635,53.891 C59.677,55.797 56.161,56.918 52.379,56.918" id="Fill-272" fill="#4D4D4D"></path>
            </g>
        </g>
    </g>
</svg>