<?xml version="1.0" encoding="UTF-8"?>
<svg width="103px" height="103px" viewBox="0 0 103 103" version="1.1" xmlns="http://www.w3.org/2000/svg" xmlns:xlink="http://www.w3.org/1999/xlink">
    <!-- Generator: Sketch 42 (36781) - http://www.bohemiancoding.com/sketch -->
    <title>right_arrow</title>
    <desc>Created with Sketch.</desc>
    <defs></defs>
    <g id="Page-1" stroke="none" stroke-width="1" fill="none" fill-rule="evenodd">
        <g id="O4YIMU1" transform="translate(-174.000000, -656.000000)">
            <g id="right_arrow" transform="translate(174.000000, 656.000000)">
                <path d="M51.591,102.818 C23.356,102.818 0.254,79.717 0.254,51.482 C0.254,23.246 23.356,0.145 51.591,0.145 C79.827,0.145 102.929,23.246 102.929,51.482 C102.929,79.717 79.827,102.818 51.591,102.818" id="Fill-83" fill="#FFFFFF"></path>
                <path d="M24.829,74.374 C24.881,54.157 40.359,37.592 60.093,35.78 L60.115,27.616 L70.83,33.838 L80.316,39.344 L81.547,40.059 L71.014,46.109 L70.8,46.231 L60.053,52.4 L60.07,45.413 C45.633,47.193 34.437,59.474 34.401,74.397 C34.399,74.769 34.423,75.134 34.437,75.502 L24.853,75.502 C24.842,75.126 24.829,74.753 24.829,74.374" id="Fill-165" fill="#4D4D4D"></path>
            </g>
        </g>
    </g>
</svg>