<?xml version="1.0" encoding="UTF-8"?>
<svg width="103px" height="104px" viewBox="0 0 103 104" version="1.1" xmlns="http://www.w3.org/2000/svg" xmlns:xlink="http://www.w3.org/1999/xlink">
    <!-- Generator: Sketch 42 (36781) - http://www.bohemiancoding.com/sketch -->
    <title>shares_logo</title>
    <desc>Created with Sketch.</desc>
    <defs></defs>
    <g id="Page-1" stroke="none" stroke-width="1" fill="none" fill-rule="evenodd">
        <g id="O4YIMU1" transform="translate(-174.000000, -227.000000)">
            <g id="shares_logo" transform="translate(174.000000, 227.000000)">
                <path d="M51.591,103.531 C23.356,103.531 0.254,80.429 0.254,52.194 C0.254,23.959 23.356,0.857 51.591,0.857 C79.827,0.857 102.929,23.959 102.929,52.194 C102.929,80.429 79.827,103.531 51.591,103.531" id="Fill-24" fill="#FFFFFF"></path>
                <path d="M65.868,61.785 C64.414,62.168 63.175,62.947 62.219,63.968 L45.556,57.752 C45.553,57.348 45.527,56.941 45.458,56.531 C45.426,56.339 45.38,56.154 45.335,55.968 L64.058,42.969 C65.663,44.106 67.698,44.634 69.79,44.282 C73.987,43.575 76.816,39.603 76.111,35.406 C75.406,31.211 71.432,28.38 67.235,29.087 C63.041,29.792 60.212,33.767 60.916,37.961 C60.936,38.074 60.966,38.181 60.989,38.292 L42.116,51.396 C40.543,50.352 38.591,49.874 36.584,50.211 C32.389,50.916 29.559,54.89 30.264,59.085 C30.969,63.281 34.944,66.111 39.138,65.406 C40.919,65.106 42.451,64.213 43.573,62.969 L60.135,69.147 C60.128,69.824 60.202,70.512 60.382,71.198 C61.467,75.313 65.682,77.769 69.797,76.684 C73.911,75.598 76.365,71.383 75.28,67.269 C74.195,63.155 69.978,60.7 65.868,61.785" id="Fill-211" fill="#4D4D4D"></path>
            </g>
        </g>
    </g>
</svg>