<?xml version="1.0" encoding="UTF-8"?>
<svg width="104px" height="104px" viewBox="0 0 104 104" version="1.1" xmlns="http://www.w3.org/2000/svg" xmlns:xlink="http://www.w3.org/1999/xlink">
    <!-- Generator: Sketch 42 (36781) - http://www.bohemiancoding.com/sketch -->
    <title>video_camera</title>
    <desc>Created with Sketch.</desc>
    <defs></defs>
    <g id="Page-1" stroke="none" stroke-width="1" fill="none" fill-rule="evenodd">
        <g id="O4YIMU1" transform="translate(-495.000000, -227.000000)">
            <g id="video_camera" transform="translate(495.000000, 227.000000)">
                <path d="M51.807,103.531 C23.571,103.531 0.47,80.429 0.47,52.194 C0.47,23.959 23.571,0.857 51.807,0.857 C80.041,0.857 103.143,23.959 103.143,52.194 C103.143,80.429 80.041,103.531 51.807,103.531" id="Fill-38" fill="#FFFFFF"></path>
                <path d="M65.46,48.054 L30.103,48.054 C28.89,48.054 27.904,49.039 27.904,50.253 L27.904,74.773 C27.904,75.988 28.89,76.972 30.103,76.972 L65.46,76.972 C66.673,76.972 67.659,75.988 67.659,74.773 L67.659,50.253 C67.659,49.039 66.673,48.054 65.46,48.054" id="Fill-231" fill="#4D4D4D"></path>
                <path d="M36.112,46.131 C39.796,46.131 42.781,43.145 42.781,39.463 C42.781,35.779 39.796,32.794 36.112,32.794 C32.429,32.794 29.444,35.779 29.444,39.463 C29.444,43.145 32.429,46.131 36.112,46.131" id="Fill-232" fill="#4D4D4D"></path>
                <path d="M57.402,46.131 C62.148,46.131 65.995,42.283 65.995,37.539 C65.995,32.794 62.148,28.946 57.402,28.946 C52.658,28.946 48.811,32.794 48.811,37.539 C48.811,42.283 52.658,46.131 57.402,46.131" id="Fill-233" fill="#4D4D4D"></path>
                <path d="M77.302,56.729 C77.072,56.521 76.765,56.419 76.458,56.448 L70.449,57.023 C69.884,57.076 69.454,57.55 69.454,58.117 L69.454,70.138 C69.454,70.705 69.884,71.179 70.449,71.234 L76.458,71.807 C76.765,71.836 77.072,71.734 77.302,71.525 C77.53,71.317 77.661,71.022 77.661,70.713 L77.661,57.542 C77.661,57.233 77.53,56.938 77.302,56.729" id="Fill-234" fill="#4D4D4D"></path>
            </g>
        </g>
    </g>
</svg>